# xmcd CD database file
#
# Track frame offsets:
#	150
#	11947
#	24150
#	36902
#	49229
#	62753
#	78583
#	91591
#	99810
#	111417
#	122718
#	132529
#	148194
#	158940
#	182040
#	197219
#	207788
#	218717
#	231361
#	243745
#
# Disc length: 3409 seconds
#
# Revision: 0
# Processed by: cddbd v1.5.2PL0 Copyright (c) Steve Scherf et al.
# Submitted via: CDex 1.51
#
DISCID=220d4f14
DTITLE=Heart Of Texas  - 25th Anniversary Collection Vol. 3
DYEAR=2014
DGENRE=Country
TTITLE0=I Thought I Heard You Calling My Name
TTITLE1=It Makes No Difference Now
TTITLE2=Sweet Lips
TTITLE3=I Went Crazy For A While
TTITLE4=Loser's Game
TTITLE5=Let's Fall In Love Again
TTITLE6=Truck Drivin' Man
TTITLE7=We're Both Lying To Me
TTITLE8=Big Mamou
TTITLE9=Run Woman Run
TTITLE10=Hello Mary Lou
TTITLE11=A Couple More Years
TTITLE12=Take A Look At This Broken Heart Of Mine
TTITLE13=Danny Boy
TTITLE14=Little Old Dime
TTITLE15=A Little South Of Memphis
TTITLE16=The Marionette
TTITLE17=My First Night Without You
TTITLE18=My Imagination
TTITLE19=The End
EXTD=YEAR: 2014
EXTT0=
EXTT1=
EXTT2=
EXTT3=
EXTT4=
EXTT5=
EXTT6=
EXTT7=
EXTT8=
EXTT9=
EXTT10=
EXTT11=
EXTT12=
EXTT13=
EXTT14=
EXTT15=
EXTT16=
EXTT17=
EXTT18=
EXTT19=
PLAYORDER=
